<svg width="40" height="32" viewBox="0 0 40 32" fill="none" xmlns="http://www.w3.org/2000/svg">
<path d="M32.2529 0.101587C32.9076 -0.0907604 33.6591 0.119571 34.1115 0.632497C35.4349 2.12202 36.5678 3.78199 37.4678 5.56081C39.0811 8.71968 39.9381 12.2523 39.9998 15.7974V16.4511C39.9279 21.6273 38.0881 26.7628 34.8256 30.7825C34.5349 31.161 34.2115 31.5504 33.7443 31.7091C33.0568 31.9796 32.2451 31.7568 31.7521 31.2188C31.2544 30.7857 30.9599 30.1078 31.0935 29.4478C31.1763 28.8989 31.5818 28.4931 31.8974 28.0654C34.4709 24.812 35.9232 20.7 36.0123 16.5543C36.1521 11.8215 34.4357 7.06831 31.3373 3.49425C31.1138 3.23544 30.8935 2.95943 30.7966 2.62634C30.6099 2.05634 30.738 1.4011 31.1201 0.939783C31.424 0.579328 31.7857 0.228255 32.2529 0.101587Z" fill="#D1D1D7"/>
<path d="M16.9845 2.49959C17.5603 2.00543 18.44 1.89206 19.097 2.29083C19.6892 2.61922 20.0267 3.294 20.0103 3.96175C20.0158 12.0435 20.0103 20.1244 20.0126 28.2061C20.0064 28.5032 19.9837 28.8066 19.8681 29.0842C19.5962 29.773 18.8673 30.2531 18.1259 30.2164C17.6978 30.2086 17.2915 30.0217 16.9681 29.748C13.6798 27.0223 10.393 24.295 7.10473 21.5686C5.31097 21.5615 3.51643 21.5811 1.72267 21.5592C0.803911 21.5388 0.0195314 20.7202 0 19.8069V12.3797C0.0648442 11.468 0.875787 10.6869 1.79532 10.6947C3.56643 10.6814 5.33832 10.6955 7.1102 10.6876C10.4016 7.95882 13.6899 5.22451 16.9845 2.49959Z" fill="#D1D1D7"/>
<path d="M25.9696 6.35685C26.5438 6.16763 27.2087 6.29352 27.6751 6.67743C27.9641 6.91278 28.1579 7.23649 28.3852 7.52657C30.5673 10.4345 31.5337 14.1993 31.1032 17.8039C30.8282 20.3701 29.8196 22.844 28.2634 24.8988C27.8141 25.4571 27.0165 25.7089 26.3321 25.4845C25.8844 25.357 25.5368 25.0255 25.2391 24.6822C24.8727 24.2584 24.7258 23.6587 24.8501 23.1122C24.9313 22.7126 25.1891 22.385 25.4126 22.055C27.0188 19.7312 27.5915 16.7405 27.0149 13.9804C26.7384 12.5894 26.154 11.268 25.3508 10.1021C25.1344 9.79955 24.8907 9.51572 24.7016 9.19436C24.3485 8.57588 24.4219 7.75332 24.8696 7.2013C25.1673 6.84554 25.5173 6.50072 25.9696 6.35685Z" fill="#D1D1D7"/>
</svg>
