<svg width="50" height="50" viewBox="0 0 50 50" fill="none" xmlns="http://www.w3.org/2000/svg">
<g clip-path="url(#clip0_15327_2)">
<path d="M0.00167434 33.3399H5.55063V44.425H44.4313V5.5711H5.56458V16.6589H0.00167434V16.5031C0.00167434 12.8587 -0.0029766 9.21472 0.00322465 5.57033C0.007488 2.97007 1.73221 0.770174 4.25379 0.16284C4.69718 0.0558682 5.16499 0.00742094 5.62194 0.00703336C18.5434 -0.00110577 31.4645 -0.00149335 44.3859 0.00238243C46.9854 0.00315758 49.1438 1.64494 49.8043 4.13047C49.9283 4.59712 49.9915 5.09399 49.9919 5.5773C50.0015 18.5263 50.0015 31.4753 49.9981 44.4246C49.9973 46.8888 48.4477 48.993 46.1041 49.7441C45.5665 49.9162 45.0134 49.9988 44.4487 49.9988C31.4831 49.9992 18.5174 50.0011 5.55179 49.9972C2.82557 49.9964 0.536919 48.0465 0.0791899 45.3529C0.0284172 45.0533 0.00593769 44.7452 0.00555012 44.4409C0.000511603 40.7857 0.00244949 37.1304 0.00244949 33.4752V33.3403L0.00167434 33.3399ZM26.8554 22.2292C24.4419 19.8189 22.0649 17.4446 19.705 15.0877C21.027 13.766 22.332 12.4615 23.6257 11.1677C28.2228 15.7625 32.8454 20.3832 37.456 24.9922C32.8454 29.6029 28.2239 34.2243 23.6187 38.8295C22.3335 37.5451 21.0278 36.2405 19.7081 34.922C22.0684 32.5651 24.4485 30.1881 26.862 27.7785H0.0113638V22.2292H26.8554Z" fill="#D1D1D7"/>
</g>
<defs>
<clipPath id="clip0_15327_2">
<rect width="50" height="49.9991" fill="white"/>
</clipPath>
</defs>
</svg>
