<svg width="132" height="50" viewBox="0 0 132 50" fill="none" xmlns="http://www.w3.org/2000/svg">
<path d="M72.4637 0H76.6092C78.3278 0.317129 80.1688 0.62037 81.5747 1.8125C83.0134 2.98379 83.6912 4.89583 83.9011 6.74999C81.8458 6.87268 79.7905 6.99999 77.7353 7.13657C77.5319 6.33564 77.3045 5.46527 76.6639 4.92361C75.8134 4.20139 74.6218 4.12037 73.5876 4.33564C72.7414 4.50231 71.9587 5.43981 72.2691 6.375C72.584 7.16203 73.4367 7.39583 74.1451 7.59722C76.3731 8.14583 78.6448 8.61805 80.7438 9.61342C82.2415 10.3287 83.6146 11.5393 84.1875 13.2153C85.1189 15.8287 84.3821 18.9745 82.4427 20.8588C80.5842 22.7477 77.8949 23.2708 75.4089 23.2847C73.0891 23.2778 70.6249 23.118 68.5828 21.8287C66.5931 20.4375 65.5108 17.9398 65.3271 15.4745C67.3999 15.3009 69.4792 15.1829 71.5564 15.0486C71.74 16.0116 71.9412 17.0463 72.6277 17.7662C73.5482 18.8148 75.0372 19.037 76.3097 18.75C77.2477 18.5463 78.1441 17.7384 78.2032 16.6759C78.2731 15.7801 77.6697 14.9722 76.9285 14.6111C75.3761 13.8356 73.6379 13.6713 72.0221 13.1018C70.192 12.4884 68.2789 11.6505 67.1025 9.96064C65.6289 7.84259 65.8672 4.69444 67.4983 2.74537C68.972 0.958333 71.2874 0.185185 73.4761 0.166667L72.4637 0Z" fill="#D1D1D7"/>
<path d="M1.48689 0.426092C5.42907 0.421462 9.37124 0.416833 13.3134 0.428407C15.2047 0.534888 17.3234 0.606647 18.8189 2.01174C20.45 3.48396 20.9245 5.95618 20.5265 8.10896C20.1745 10.1668 18.6746 11.9029 16.8292 12.5904C16.4444 12.7409 16.0268 12.8011 15.6639 13.0094C17.3103 13.4562 18.3882 14.94 19.2125 16.4122C20.2642 18.5742 21.3268 20.7316 22.3741 22.896C19.9952 22.8867 17.6185 22.8867 15.2397 22.896C14.9598 23.0094 14.8483 22.6923 14.7455 22.5048C13.637 20.3057 12.5066 18.1205 11.3959 15.9261C10.9958 15.1668 10.5476 14.315 9.73201 13.9978C9.21819 13.7594 8.64971 13.7803 8.1031 13.771C8.08779 16.808 8.10091 19.8474 8.09654 22.8844C5.89259 22.8914 3.68865 22.8983 1.4847 22.8821C1.48689 15.396 1.48033 7.90988 1.48689 0.426092ZM8.10091 4.97238C8.09217 6.4909 8.09217 8.01173 8.1031 9.53025C9.76699 9.50016 11.5052 9.71312 13.086 9.02794C14.4263 8.27794 14.3848 5.83813 12.9286 5.26174C11.3718 4.73627 9.70577 5.07192 8.10091 4.97238Z" fill="#D1D1D7"/>
<path d="M3.3409 28.3311C5.22562 26.9561 7.59574 26.7269 9.81936 26.7177C11.9599 26.7315 14.236 27.0047 16.0398 28.3264C17.6053 29.4769 18.3771 31.4815 18.5652 33.4306C16.5143 33.5626 14.459 33.6783 12.4081 33.8149C12.2201 33.0926 12.0408 32.3172 11.516 31.7755C10.6852 30.8982 9.37988 30.7871 8.28229 31.0139C7.48204 31.169 6.75614 31.9653 6.88733 32.8681C7.08848 33.7362 7.98274 34.044 8.70427 34.2477C10.8426 34.7778 13.0138 35.2362 15.0537 36.1204C16.4006 36.7246 17.7015 37.6343 18.4537 38.9954C19.7743 41.3658 19.4332 44.5325 17.859 46.676C16.37 48.7593 13.8424 49.8195 11.4155 49.8033L12.2113 50H8.14235C6.33853 49.6713 4.39696 49.4422 2.88393 48.2362C1.13258 46.7732 0.161798 44.4491 0 42.1227C2.07713 42.0163 4.14989 41.8658 6.22483 41.7176C6.41943 42.7107 6.6337 43.7778 7.35523 44.5047C8.29322 45.5186 9.76251 45.713 11.0219 45.4213C11.9533 45.2014 12.8695 44.3681 12.8695 43.2963C12.9241 42.4375 12.3491 41.676 11.6472 41.3195C10.3878 40.6575 8.97539 40.4584 7.62854 40.0672C6.06522 39.6158 4.49535 39.051 3.15505 38.0625C2.02684 37.2269 1.14789 35.963 0.909565 34.5116C0.430731 32.1783 1.46055 29.6274 3.3409 28.3311Z" fill="#D1D1D7"/>
<path d="M25.8219 30.632C27.4334 28.3079 30.1118 27.0649 32.7727 26.8102C35.2281 26.5857 37.8365 26.72 40.0623 27.9468C42.1679 29.1227 43.4994 31.3843 44.2275 33.72C42.2969 34.176 40.3662 34.6251 38.4378 35.0857C38.1863 34.3635 37.9218 33.6112 37.3708 33.0788C35.8206 31.3982 32.9017 31.5718 31.5351 33.419C30.4485 34.801 30.3763 36.7061 30.3435 38.419C30.4113 40.0417 30.4419 41.7963 31.3143 43.2014C32.4163 44.8658 34.7077 45.1135 36.365 44.3334C37.7731 43.5973 38.3219 41.8843 38.6739 40.3774C40.5936 40.9908 42.5111 41.6019 44.4287 42.2223C43.9673 44.2269 43.1124 46.1968 41.6497 47.6019C40.2001 49.0602 38.2126 49.7732 36.2448 49.9028L36.892 50H33.2581C31.5286 49.6922 29.7095 49.419 28.2183 48.3612C25.6886 46.5764 24.134 43.4723 23.8716 40.2917C23.559 36.9885 23.8935 33.3704 25.8219 30.632Z" fill="#D1D1D7"/>
<path d="M78.3952 28.4051C81.148 26.6343 84.5523 26.4491 87.6636 26.9676C90.4601 27.4306 93.1144 29.1459 94.481 31.8172C95.7032 29.5857 97.7694 27.9121 100.124 27.2477C102.973 26.463 106.071 26.5116 108.866 27.5278C111.419 28.4468 113.446 30.6667 114.369 33.3357C114.376 31.2593 114.365 29.1829 114.376 27.1065C116.562 27.1135 118.751 27.1112 120.939 27.1065C120.948 32.7547 120.935 38.4005 120.946 44.0486C124.352 44.0463 127.757 44.0463 131.163 44.0463V49.588C125.566 49.588 119.971 49.588 114.376 49.5903C114.362 47.5093 114.38 45.4306 114.367 43.3519C113.12 47.1482 109.526 49.8125 105.741 49.8449L106.482 50H102.765C101.241 49.7107 99.6694 49.4884 98.2767 48.7222C96.6631 47.9005 95.3927 46.4815 94.481 44.8727C92.922 47.9005 89.7386 49.7824 86.5092 49.8542L87.2373 50H83.5531C82.1669 49.7246 80.7413 49.544 79.4469 48.9144C77.4573 48.0139 75.8874 46.257 74.9538 44.2107C73.749 41.4699 73.6331 38.3102 74.0967 35.3635C74.5383 32.5486 76.0623 29.8936 78.3952 28.4051ZM81.9985 32.9861L82.2193 32.9676C81.6159 33.2871 81.2639 33.9399 80.9971 34.5672C80.4986 35.8542 80.4155 37.2709 80.4112 38.6482C80.4789 40.3241 80.6385 42.1922 81.7821 43.4746C83.1879 45.0232 85.6565 45.1574 87.3378 44.0486C88.536 43.2431 88.9974 41.7107 89.1548 40.2917C89.345 38.5185 89.3887 36.669 88.8618 34.9514C88.4814 33.6899 87.5302 32.6227 86.3277 32.2292C84.8737 31.7315 83.2164 31.9954 81.9985 32.9861ZM103.041 32.088C101.412 32.3982 100.185 33.9167 99.8968 35.6065C99.4967 37.8334 99.4486 40.257 100.293 42.3797C101.497 45.3033 105.866 45.6019 107.536 43.0209C108.308 41.7292 108.424 40.1435 108.49 38.6528C108.52 36.9051 108.417 34.9792 107.357 33.5486C106.356 32.1922 104.582 31.7639 103.041 32.088Z" fill="#D1D1D7"/>
<path d="M49.4814 27.0972C51.6635 27.118 53.8456 27.1157 56.0277 27.0995C56.043 29.7222 56.0211 32.3449 56.0386 34.9652C58.424 34.9861 60.8073 34.9745 63.1927 34.9722C63.1971 32.3495 63.1883 29.7268 63.1971 27.1064C65.3923 27.1111 67.5853 27.1134 69.7783 27.1041C69.7848 34.5995 69.7827 42.0925 69.7805 49.5879C67.5853 49.5902 65.3901 49.5879 63.1971 49.5902C63.1861 46.5532 63.1992 43.5184 63.1905 40.4837C60.8073 40.4768 58.424 40.4814 56.0408 40.4814C56.0233 43.5161 56.0408 46.5532 56.032 49.5879C53.8456 49.5902 51.6613 49.5879 49.4771 49.5902C49.4749 42.0925 49.4639 34.5948 49.4814 27.0972Z" fill="#D1D1D7"/>
</svg>
