<svg width="156" height="51" viewBox="0 0 156 51" fill="none" xmlns="http://www.w3.org/2000/svg">
<path d="M16.0964 43.5213L11.2242 36.4724H10.9358H5.84624V43.5213H0V18.2169H10.9358C13.1743 18.2169 15.1165 18.5909 16.7642 19.3369C18.412 20.085 19.6824 21.1437 20.5715 22.517C21.4606 23.8904 21.9071 25.5171 21.9071 27.397C21.9071 29.277 21.4566 30.8978 20.5537 32.2592C19.6508 33.6207 18.3705 34.6636 16.7109 35.3859L22.3773 43.5193H16.0984L16.0964 43.5213ZM15.9878 27.399C15.9878 25.9762 15.5314 24.8858 14.6166 24.1279C13.7018 23.368 12.3662 22.99 10.6098 22.99H5.84624V31.81H10.6098C12.3662 31.81 13.7018 31.4241 14.6166 30.6543C15.5314 29.8826 15.9878 28.7981 15.9878 27.401V27.399ZM34.8265 43.9546C32.8291 43.9546 30.8988 43.6835 29.0336 43.1413C27.1685 42.5991 25.6709 41.8946 24.5408 41.0258L26.5264 36.6168C27.6091 37.4123 28.8973 38.0496 30.389 38.5324C31.8807 39.0153 33.3724 39.2547 34.8641 39.2547C36.5237 39.2547 37.7507 39.0074 38.5449 38.5146C39.3392 38.0199 39.7363 37.3629 39.7363 36.5436C39.7363 35.942 39.5012 35.4413 39.0329 35.0436C38.5647 34.6458 37.9621 34.3272 37.2291 34.0858C36.4961 33.8444 35.5023 33.5792 34.2516 33.2903C32.3272 32.8331 30.7506 32.374 29.5236 31.9169C28.2967 31.4598 27.2436 30.7236 26.3664 29.7124C25.4892 28.7012 25.0486 27.3515 25.0486 25.6635C25.0486 24.1932 25.4457 22.8614 26.2399 21.6681C27.0342 20.4748 28.2315 19.5289 29.8299 18.8303C31.4302 18.1318 33.3842 17.7815 35.6959 17.7815C36.6442 17.7815 37.5827 17.8488 38.5054 17.9814L41.3722 23.8033C39.4676 22.9207 37.563 22.4794 35.6603 22.4794C34.0244 22.4794 32.8152 22.7446 32.0328 23.275C31.2504 23.8053 30.8592 24.5039 30.8592 25.3726C30.8592 26.2394 31.3097 26.8845 32.2126 27.306C33.1155 27.7275 34.4926 28.1431 36.3459 28.5527C38.2703 29.0099 39.8469 29.469 41.0739 29.9261C42.3008 30.3832 43.3539 31.1075 44.2311 32.095C45.1083 33.0825 45.5489 34.4202 45.5489 36.1082C45.5489 37.5548 45.1459 38.8728 44.3398 40.0661C43.5337 41.2594 42.3245 42.2053 40.7123 42.9038C39.1001 43.6024 37.1401 43.9527 34.8305 43.9527L34.8265 43.9546Z" fill="#D1D1D7"/>
<path d="M54.1274 25.2617H59.9737V45.795H72.6422V50.5661H59.2664L54.1274 40.1273V25.2617ZM92.781 45.1439H81.051L78.8144 50.5661H72.824L84.0838 25.2617H89.8589L101.156 50.5661H95.0195L92.783 45.1439H92.781ZM90.9396 40.6973L86.9328 31.0085L82.926 40.6973H90.9376H90.9396ZM126.958 25.2617V50.5661H122.156L109.561 35.2038V50.5661H103.786V25.2617H108.623L121.182 40.626V25.2617H126.958ZM150.02 37.5152H155.363V47.7818C153.992 48.8187 152.403 49.6123 150.599 50.1684C148.795 50.7225 146.978 50.9995 145.15 50.9995C142.526 50.9995 140.169 50.4395 138.077 49.3194C135.983 48.1993 134.341 46.6439 133.152 44.6571C131.96 42.6683 131.365 40.4222 131.365 37.9149C131.365 35.4076 131.96 33.1616 133.152 31.1727C134.343 29.1839 135.997 27.6305 138.115 26.5104C140.233 25.3904 142.613 24.8303 145.261 24.8303C147.474 24.8303 149.483 25.2043 151.287 25.9504C153.091 26.6984 154.608 27.7829 155.835 29.2037L152.081 32.6747C150.277 30.771 148.098 29.8192 145.549 29.8192C143.937 29.8192 142.507 30.1556 141.254 30.8324C140.003 31.5072 139.029 32.459 138.33 33.688C137.633 34.9169 137.283 36.3258 137.283 37.9169C137.283 39.4822 137.633 40.8813 138.33 42.1102C139.027 43.3391 139.996 44.2969 141.234 44.9836C142.473 45.6703 143.888 46.0146 145.474 46.0146C147.158 46.0146 148.675 45.6525 150.022 44.9302V37.5191L150.02 37.5152Z" fill="#D1D1D7"/>
<path d="M0.00195312 1.16455H2.20491V8.90211H6.9803V10.7009H0.00195312V1.16455Z" fill="#D1D1D7"/>
<path d="M15.5908 8.92982V10.7009H8.21729V1.16455H15.4149V2.93568H10.4084V5.00563H14.8301V6.72333H10.4084V8.92982H15.5908Z" fill="#D1D1D7"/>
<path d="M23.6179 8.65675H19.1962L18.3525 10.701H16.0942L20.3382 1.1626H22.5154L26.7732 10.701H24.4615L23.6179 8.65675ZM22.9244 6.98061L21.4149 3.32951L19.9055 6.98061H22.9264H22.9244Z" fill="#D1D1D7"/>
<path d="M33.8326 10.701L31.9972 8.04329H31.8885H29.9701V10.701H27.7671V1.1626H31.8885C32.7321 1.1626 33.4652 1.3031 34.0855 1.58411C34.7079 1.86511 35.186 2.26485 35.5199 2.78333C35.8558 3.29983 36.0238 3.91329 36.0238 4.62174C36.0238 5.3302 35.8538 5.94168 35.514 6.45422C35.1742 6.96676 34.6901 7.36056 34.0658 7.63365L36.2016 10.699H33.8346L33.8326 10.701ZM33.7912 4.62372C33.7912 4.08744 33.6193 3.67582 33.2755 3.39086C32.9297 3.10391 32.4279 2.96143 31.766 2.96143H29.9701V6.28601H31.766C32.4279 6.28601 32.9317 6.14155 33.2755 5.85065C33.6193 5.55975 33.7912 5.15209 33.7912 4.62372Z" fill="#D1D1D7"/>
<path d="M46.4994 1.16455V10.7009H44.6897L39.9419 4.91064V10.7009H37.7646V1.16455H39.5883L44.3222 6.95486V1.16455H46.4994Z" fill="#D1D1D7"/>
<path d="M48.7573 1.16455H50.9603V10.7009H48.7573V1.16455Z" fill="#D1D1D7"/>
<path d="M61.9516 1.16455V10.7009H60.1418L55.396 4.91064V10.7009H53.2188V1.16455H55.0404L59.7763 6.95486V1.16455H61.9516Z" fill="#D1D1D7"/>
<path d="M70.645 5.78326H72.6583V9.65402C72.1407 10.0439 71.542 10.3447 70.8624 10.5524C70.1827 10.7622 69.4971 10.8651 68.8076 10.8651C67.8197 10.8651 66.9306 10.6534 66.1403 10.2319C65.352 9.81035 64.7316 9.22262 64.2831 8.47458C63.8346 7.72458 63.6094 6.8776 63.6094 5.93366C63.6094 4.98971 63.8326 4.14274 64.2831 3.39273C64.7316 2.64272 65.3559 2.05696 66.1541 1.63545C66.9523 1.21394 67.8493 1.0022 68.8471 1.0022C69.6809 1.0022 70.4395 1.1427 71.1192 1.42371C71.7989 1.70471 72.3699 2.11435 72.8342 2.65063L71.4195 3.9587C70.7399 3.24035 69.9179 2.88217 68.9577 2.88217C68.3512 2.88217 67.8098 3.00882 67.3396 3.2641C66.8674 3.5174 66.4999 3.87756 66.2371 4.34063C65.9743 4.80369 65.842 5.33404 65.842 5.93366C65.842 6.52337 65.9743 7.05174 66.2371 7.51481C66.4999 7.97788 66.8654 8.34002 67.3317 8.59728C67.798 8.85652 68.3314 8.98514 68.9301 8.98514C69.5643 8.98514 70.1353 8.8486 70.645 8.57749V5.78326Z" fill="#D1D1D7"/>
<path d="M82.6712 1.16458C83.5149 1.16458 84.2479 1.30508 84.8683 1.58609C85.4906 1.86709 85.9688 2.26683 86.3027 2.78531C86.6385 3.30181 86.8065 3.91527 86.8065 4.62372C86.8065 5.32228 86.6385 5.93376 86.3027 6.4562C85.9668 6.97863 85.4887 7.37837 84.8683 7.65542C84.2479 7.93247 83.5149 8.07099 82.6712 8.07099H80.7528V10.701H78.5479V1.1626H82.6693L82.6712 1.16458ZM82.5487 6.27414C83.2106 6.27414 83.7144 6.13166 84.0582 5.84471C84.402 5.55777 84.5739 5.15209 84.5739 4.6257C84.5739 4.08942 84.402 3.6778 84.0582 3.39284C83.7125 3.10589 83.2106 2.96341 82.5487 2.96341H80.7528V6.27414H82.5487Z" fill="#D1D1D7"/>
<path d="M88.3716 1.16455H90.5745V8.90211H95.3499V10.7009H88.3716V1.16455Z" fill="#D1D1D7"/>
<path d="M102.941 8.65675H98.5189L97.6753 10.701H95.417L99.6609 1.1626H101.838L106.096 10.701H103.784L102.941 8.65675ZM102.247 6.98061L100.738 3.32951L99.2282 6.98061H102.249H102.247Z" fill="#D1D1D7"/>
<path d="M108.585 2.96141H105.539V1.16455H113.837V2.96141H110.788V10.7009H108.585V2.96141Z" fill="#D1D1D7"/>
<path d="M117.223 2.93568V5.45484H121.631V7.22597H117.223V10.7009H115.02V1.16455H122.216V2.93568H117.223Z" fill="#D1D1D7"/>
<path d="M128.228 10.8652C127.24 10.8652 126.349 10.6514 125.555 10.224C124.761 9.79655 124.14 9.20881 123.692 8.4588C123.243 7.7088 123.018 6.86776 123.018 5.93173C123.018 4.9957 123.241 4.15466 123.692 3.40465C124.14 2.65464 124.763 2.06691 125.555 1.63946C126.349 1.21201 127.24 0.998291 128.228 0.998291C129.216 0.998291 130.105 1.21201 130.895 1.63946C131.684 2.06691 132.306 2.65464 132.759 3.40465C133.213 4.15466 133.438 4.9957 133.438 5.93173C133.438 6.86776 133.211 7.71077 132.759 8.4588C132.306 9.20881 131.684 9.79655 130.895 10.224C130.107 10.6514 129.218 10.8652 128.228 10.8652ZM128.228 8.9852C128.791 8.9852 129.299 8.85657 129.751 8.59733C130.204 8.33809 130.559 7.97793 130.818 7.51486C131.077 7.0518 131.206 6.5254 131.206 5.93371C131.206 5.34399 131.077 4.8176 130.818 4.35453C130.559 3.89147 130.204 3.52933 129.751 3.27009C129.297 3.01085 128.789 2.88222 128.228 2.88222C127.665 2.88222 127.157 3.01085 126.705 3.27009C126.25 3.52933 125.895 3.88949 125.638 4.35453C125.379 4.8176 125.251 5.34399 125.251 5.93371C125.251 6.52343 125.381 7.0518 125.638 7.51486C125.897 7.97793 126.252 8.34007 126.705 8.59733C127.159 8.85657 127.667 8.9852 128.228 8.9852Z" fill="#D1D1D7"/>
<path d="M141.165 10.701L139.33 8.04329H139.221H137.303V10.701H135.1V1.1626H139.221C140.065 1.1626 140.798 1.3031 141.418 1.58411C142.04 1.86511 142.519 2.26485 142.852 2.78333C143.188 3.29983 143.356 3.91329 143.356 4.62174C143.356 5.3302 143.186 5.94168 142.847 6.45422C142.507 6.96676 142.023 7.36056 141.398 7.63365L143.534 10.699H141.167L141.165 10.701ZM141.124 4.62372C141.124 4.08744 140.952 3.67582 140.608 3.39086C140.262 3.10391 139.76 2.96143 139.099 2.96143H137.303V6.28601H139.099C139.76 6.28601 140.264 6.14155 140.608 5.85065C140.952 5.55975 141.124 5.15209 141.124 4.62372Z" fill="#D1D1D7"/>
<path d="M153.763 10.7009L153.749 4.9799L150.947 9.69368H149.954L147.166 5.10062V10.7009H145.097V1.16455H146.921L150.485 7.0914L153.994 1.16455H155.804L155.831 10.7009H153.763Z" fill="#D1D1D7"/>
</svg>
