<svg width="50" height="50" viewBox="0 0 50 50" fill="none" xmlns="http://www.w3.org/2000/svg">
<path d="M24.8457 0H25.1562C27.1885 0.046875 29.2188 0.477539 31.0615 1.34668C34.3916 2.87891 37.0879 5.73047 38.4297 9.1416C39.5996 12.083 39.7715 15.417 38.8838 18.457C37.9736 21.6504 35.9072 24.4766 33.1816 26.3643C37.3311 27.8057 41.0801 30.3633 43.9443 33.6924C46.0967 36.1826 47.7568 39.1006 48.7705 42.2324C49.5557 44.623 49.9482 47.1338 50 49.6475V50H46.0938C46.0898 46.2178 45.0615 42.4404 43.1084 39.1982C40.8398 35.4561 37.4219 32.4023 33.4014 30.6563C29.959 29.1494 26.1064 28.6055 22.3799 29.0732C18.9648 29.499 15.6455 30.7686 12.8516 32.7832C10.8916 34.1719 9.1709 35.8926 7.78223 37.8525C5.25098 41.3584 3.91113 45.6826 3.90625 50H0V49.6494C0.0605469 46.332 0.748047 43.0195 2.08594 39.9795C3.61816 36.4756 5.97559 33.3389 8.90332 30.8799C11.2305 28.8984 13.9365 27.377 16.8184 26.3643C15.1084 25.1641 13.6348 23.6172 12.5723 21.8145C11.1025 19.3506 10.3848 16.4375 10.5879 13.5732C10.8066 9.39062 12.9961 5.37988 16.3574 2.89258C18.7812 1.04883 21.8066 0.0507812 24.8457 0ZM23.8779 3.97266C21.0371 4.26465 18.3525 5.78125 16.6299 8.05664C15.1279 10.0039 14.3457 12.4932 14.4756 14.9492C14.5723 17.3359 15.5342 19.6689 17.124 21.4482C18.7627 23.3027 21.0732 24.5537 23.5273 24.8877C25.8721 25.2246 28.3281 24.7402 30.3623 23.5215C32.4141 22.3145 34.0312 20.3887 34.8652 18.1582C35.7539 15.8213 35.7627 13.1621 34.8916 10.8193C34.0654 8.55762 32.4346 6.60254 30.3594 5.38281C28.4268 4.22559 26.1152 3.7334 23.8779 3.97266Z" fill="#D1D1D7"/>
</svg>
